<svg width="213" height="213" viewBox="0 0 213 213" fill="none" xmlns="http://www.w3.org/2000/svg">
<circle cx="106.5" cy="106.5" r="100" fill="#EBEBEB" stroke="black" stroke-width="13"/>
<path d="M83.5 57C79.1667 66.5 65.1 85.5 43.5 85.5M133 57C137.333 66.5 151.4 85.5 173 85.5" stroke="black" stroke-width="11"/>
<path d="M79.1648 159C80.6571 145.5 92.1023 135 106 135C119.898 135 131.343 145.5 132.835 159H132.766H132.615H132.465H132.316H132.167H132.02H131.874H131.729H131.584H131.441H131.298H131.157H131.016H130.876H130.738H130.6H130.463H130.327H130.192H130.058H129.925H129.792H129.661H129.53H129.401H129.272H129.144H129.018H128.891H128.766H128.642H128.519H128.396H128.274H128.154H128.034H127.915H127.796H127.679H127.563H127.447H127.332H127.218H127.105H126.992H126.881H126.77H126.66H126.551H126.443H126.336H126.229H126.123H126.018H125.914H125.81H125.708H125.606H125.505H125.404H125.305H125.206H125.108H125.011H124.914H124.818H124.723H124.629H124.535H124.443H124.351H124.259H124.169H124.079H123.99H123.901H123.813H123.726H123.64H123.555H123.47H123.386H123.302H123.219H123.137H123.056H122.975H122.895H122.815H122.737H122.659H122.581H122.505H122.428H122.353H122.278H122.204H122.131H122.058H121.985H121.914H121.843H121.772H121.703H121.634H121.565H121.497H121.43H121.363H121.297H121.232H121.167H121.102H121.039H120.976H120.913H120.851H120.79H120.729H120.668H120.609H120.549H120.491H120.433H120.375H120.318H120.262H120.206H120.15H120.096H120.041H119.987H119.934H119.881H119.829H119.777H119.726H119.675H119.625H119.575H119.526H119.477H119.429H119.381H119.334H119.287H119.24H119.194H119.149H119.104H119.059H119.015H118.971H118.928H118.885H118.843H118.801H118.759H118.718H118.678H118.637H118.598H118.558H118.519H118.481H118.442H118.405H118.367H118.33H118.293H118.257H118.221H118.186H118.151H118.116H118.082H118.048H118.014H117.981H117.948H117.915H117.883H117.851H117.819H117.788H117.757H117.726H117.696H117.666H117.636H117.607H117.578H117.549H117.521H117.493H117.465H117.437H117.41H117.383H117.356H117.33H117.304H117.278H117.252H117.227H117.202H117.177H117.153H117.128H117.104H117.08H117.057H117.033H117.01H116.987H116.965H116.942H116.92H116.898H116.876H116.855H116.833H116.812H116.791H116.77H116.749H116.729H116.709H116.689H116.669H116.649H116.629H116.61H116.591H116.572H116.553H116.534H116.515H116.497H116.478H116.46H116.442H116.424H116.406H116.388H116.371H116.353H116.336H116.319H116.302H116.284H116.268H116.251H116.234H116.217H116.201H116.184H116.168H116.151H116.135H116.119H116.102H116.086H116.07H116.054H116.038H116.022H116.006H115.99H115.975H115.959H115.943H115.927H115.912H115.896H115.88H115.864H115.849H115.833H115.817H115.802H115.786H115.77H115.754H115.739H115.723H115.707H115.691H115.675H115.659H115.643H115.627H115.611H115.595H115.579H115.563H115.547H115.53H115.514H115.497H115.481H115.464H115.448H115.431H115.414H115.397H115.38H115.363H115.345H115.328H115.31H115.293H115.275H115.257H115.239H115.221H115.203H115.184H115.166H115.147H115.128H115.109H115.09H115.071H115.051H115.032H115.012H114.992H114.972H114.952H114.931H114.91H114.89H114.869H114.847H114.826H114.804H114.782H114.76H114.738H114.715H114.693H114.67H114.647H114.623H114.599H114.576H114.551H114.527H114.502H114.478H114.452H114.427H114.401H114.375H114.349H114.323H114.296H114.269H114.242H114.214H114.186H114.158H114.129H114.101H114.071H114.042H114.012H113.982H113.952H113.921H113.89H113.859H113.827H113.795H113.763H113.73H113.697H113.664H113.63H113.596H113.561H113.526H113.491H113.456H113.42H113.383H113.347H113.309H113.272H113.234H113.196H113.157H113.118H113.078H113.039H112.998H112.957H112.916H112.875H112.833H112.79H112.747H112.704H112.66H112.616H112.571H112.526H112.48H112.434H112.388H112.341H112.293H112.245H112.197H112.148H112.099H112.049H111.998H111.947H111.896H111.844H111.792H111.739H111.685H111.631H111.577H111.522H111.466H111.41H111.354H111.297H111.239H111.181H111.122H111.063H111.003H110.942H110.881H110.82H110.758H110.695H110.632H110.568H110.503H110.438H110.373H110.307H110.24H110.172H110.104H110.036H109.966H109.896H109.826H109.755H109.683H109.611H109.538H109.464H109.39H109.315H109.239H109.163H109.086H109.009H108.93H108.851H108.772H108.692H108.611H108.529H108.447H108.364H108.28H108.196H108.111H108.025H107.939H107.851H107.764H107.675H107.586H107.496H107.405H107.313H107.221H107.128H107.034H106.94H106.845H106.749H106.652H106.555H106.459H106.363H106.268H106.172H106.078H105.984H105.89H105.797H105.704H105.612H105.52H105.428H105.337H105.247H105.156H105.067H104.977H104.889H104.8H104.712H104.624H104.537H104.45H104.364H104.278H104.193H104.107H104.023H103.938H103.854H103.771H103.688H103.605H103.523H103.441H103.359H103.278H103.198H103.117H103.037H102.958H102.878H102.8H102.721H102.643H102.565H102.488H102.411H102.335H102.258H102.183H102.107H102.032H101.957H101.883H101.809H101.735H101.662H101.589H101.516H101.444H101.372H101.3H101.229H101.158H101.088H101.017H100.947H100.878H100.809H100.74H100.671H100.603H100.535H100.467H100.4H100.333H100.266H100.2H100.134H100.068H100.003H99.9378H99.873H99.8085H99.7443H99.6805H99.6169H99.5536H99.4905H99.4278H99.3654H99.3033H99.2414H99.1799H99.1186H99.0576H98.9969H98.9364H98.8762H98.8163H98.7567H98.6974H98.6383H98.5795H98.5209H98.4626H98.4046H98.3468H98.2893H98.2321H98.175H98.1183H98.0618H98.0055H97.9495H97.8938H97.8382H97.783H97.7279H97.6731H97.6185H97.5642H97.5101H97.4562H97.4026H97.3491H97.2959H97.243H97.1902H97.1377H97.0853H97.0332H96.9813H96.9297H96.8782H96.8269H96.7759H96.725H96.6743H96.6239H96.5736H96.5236H96.4737H96.424H96.3746H96.3253H96.2762H96.2272H96.1785H96.1299H96.0816H96.0334H95.9853H95.9375H95.8898H95.8423H95.795H95.7478H95.7008H95.654H95.6073H95.5608H95.5144H95.4682H95.4221H95.3762H95.3305H95.2849H95.2394H95.1941H95.1489H95.1039H95.059H95.0143H94.9697H94.9252H94.8808H94.8366H94.7925H94.7486H94.7047H94.661H94.6174H94.5739H94.5306H94.4873H94.4442H94.4012H94.3583H94.3155H94.2728H94.2302H94.1877H94.1453H94.103H94.0608H94.0187H93.9767H93.9348H93.893H93.8512H93.8096H93.768H93.7265H93.6851H93.6438H93.6025H93.5613H93.5202H93.4792H93.4383H93.3974H93.3565H93.3158H93.2751H93.2344H93.1938H93.1533H93.1128H93.0724H93.032H92.9917H92.9514H92.9112H92.871H92.8309H92.7908H92.7507H92.7106H92.6707H92.6307H92.5907H92.5508H92.511H92.4711H92.4313H92.3915H92.3517H92.3119H92.2721H92.2324H92.1927H92.1529H92.1132H92.0735H92.0338H91.9941H91.9544H91.9147H91.875H91.8353H91.7956H91.7559H91.7161H91.6764H91.6366H91.5969H91.5571H91.5173H91.4774H91.4376H91.3977H91.3578H91.3179H91.2779H91.2379H91.1979H91.1578H91.1177H91.0776H91.0374H90.9972H90.9569H90.9166H90.8762H90.8358H90.7953H90.7548H90.7142H90.6736H90.6329H90.5921H90.5513H90.5104H90.4694H90.4284H90.3873H90.3461H90.3049H90.2636H90.2222H90.1807H90.1391H90.0975H90.0558H90.0139H89.972H89.93H89.8879H89.8458H89.8035H89.7611H89.7186H89.676H89.6333H89.5905H89.5476H89.5046H89.4615H89.4183H89.3749H89.3314H89.2879H89.2442H89.2003H89.1564H89.1123H89.0681H89.0237H88.9793H88.9347H88.8899H88.845H88.8H88.7549H88.7096H88.6641H88.6185H88.5728H88.5269H88.4809H88.4347H88.3883H88.3418H88.2952H88.2483H88.2013H88.1542H88.1069H88.0594H88.0117H87.9639H87.9159H87.8677H87.8193H87.7708H87.7221H87.6732H87.6241H87.5748H87.5253H87.4757H87.4258H87.3758H87.3255H87.2751H87.2244H87.1736H87.1226H87.0713H87.0199H86.9682H86.9163H86.8642H86.8119H86.7594H86.7067H86.6537H86.6005H86.5471H86.4935H86.4396H86.3855H86.3312H86.2767H86.2219H86.1669H86.1116H86.0561H86.0003H85.9444H85.8881H85.8316H85.7749H85.7179H85.6607H85.6032H85.5454H85.4874H85.4292H85.3706H85.3118H85.2528H85.1934H85.1338H85.074H85.0138H84.9534H84.8927H84.8317H84.7705H84.7089H84.6471H84.585H84.5226H84.4599H84.3969H84.3336H84.2701H84.2062H84.142H84.0776H84.0128H83.9477H83.8823H83.8166H83.7506H83.6843H83.6177H83.5507H83.4835H83.4159H83.348H83.2797H83.2112H83.1423H83.0731H83.0035H82.9337H82.8635H82.7929H82.722H82.6508H82.5792H82.5073H82.4351H82.3625H82.2895H82.2162H82.1426H82.0686H81.9942H81.9195H81.8444H81.7689H81.6931H81.617H81.5404H81.4635H81.3862H81.3086H81.2305H81.1521H81.0733H80.9942H80.9146H80.8347H80.7544H80.6737H80.5926H80.5111H80.4292H80.3469H80.2642H80.1811H80.0977H80.0138H79.9295H79.8448H79.7597H79.6742H79.5883H79.502H79.4152H79.3281H79.2405H79.1648Z" fill="black" stroke="black" stroke-width="6"/>
<path d="M136.227 119.313C136.227 112.855 147.929 92 147.929 92C147.929 92 159.632 112.855 159.632 119.313C159.632 125.77 154.387 131.015 147.929 131.015C141.472 131.015 136.227 125.77 136.227 119.313Z" fill="black"/>
</svg>
